<svg width="84" height="62" viewBox="0 0 84 62" fill="none" xmlns="http://www.w3.org/2000/svg">
<g clip-path="url(#clip0_1_112)">
<path d="M8.89047 41.3291L8.87658 40.9097C8.69102 33.1598 8.83177 25.3682 8.82546 17.6158C8.82167 13.16 8.43667 8.31185 8.9782 3.8926C9.10759 2.83746 9.20731 1.95008 10.0455 1.20902C10.6249 0.696897 11.422 0.481201 12.1706 0.391012C18.3395 -0.353202 26.1734 0.192345 32.4951 0.192975L69.9789 0.141889C72.0143 0.152611 74.1003 -0.172194 75.6391 1.38309C75.2856 1.43039 75.078 1.53004 74.751 1.37615C72.5559 0.341818 61.3118 0.192975 58.5764 0.679238L58.3662 0.960525C61.7763 1.71042 65.0874 0.484985 67.2441 3.86612C67.6669 4.53023 67.9598 5.40941 68.536 5.94109C68.6162 5.94235 68.6963 5.94298 68.7765 5.94613C69.4474 5.96694 69.8129 5.97704 70.3714 6.40149C70.2906 6.41473 70.2099 6.42861 70.1284 6.44059C65.8927 7.05615 60.9464 6.5989 56.6368 6.59322L28.2828 6.52763C24.3298 6.5106 18.6728 5.78404 14.966 7.2094C14.071 8.57296 14.7331 20.838 14.6529 23.2176C14.6302 23.1514 14.605 23.0858 14.5841 23.0189C13.8192 20.5693 15.2374 16.9656 13.1817 15.0747C11.9118 14.649 11.0093 15.0804 9.85425 15.6436C9.32029 14.7159 9.85614 13.58 9.36573 12.7469C8.88037 14.9391 9.21993 17.5149 9.2477 19.7576C9.30703 24.5805 9.71224 36.9906 8.88858 41.3291H8.89047Z" fill="#99B7C2"/>
<path d="M50.8176 50.3076L84 50.196C82.9611 51.6125 81.6685 52.8543 80.4516 54.1195C78.0968 56.7873 75.675 60.0593 72.6524 61.9867L10.2588 62.0006C8.31738 60.1085 0.693008 52.2773 0.000629425 50.341C11.1001 50.073 22.2836 50.3568 33.3932 50.3366C33.4999 51.0947 33.5775 51.9354 33.8508 52.6532C34.0787 53.2523 34.7389 54.2349 35.3574 54.4626C37.3897 55.21 46.479 55.4938 48.2892 54.561C49.944 53.7083 50.3657 51.9499 50.8176 50.3082V50.3076Z" fill="#94BCE8"/>
<path d="M70.3727 6.40151C69.8141 5.97768 69.4487 5.96759 68.7778 5.94615C68.6976 5.94363 68.6168 5.94237 68.5373 5.9411C67.9617 5.40943 67.6682 4.53025 67.2453 3.86613C65.0887 0.485635 61.7776 1.71044 58.3675 0.960545L58.5776 0.679257C61.3131 0.192995 72.5571 0.341207 74.7523 1.37617C75.0792 1.53006 75.2869 1.43041 75.6403 1.38311C76.7518 2.34113 76.9803 3.38492 77.0762 4.79892C77.494 10.9696 77.0005 17.3648 77.0093 23.5601C77.0188 29.8007 77.5849 36.8197 77.0049 42.9336C76.8932 44.108 76.6439 45.6494 75.8467 46.5512C74.503 48.0706 72.405 48.1721 70.5254 48.186L32.7065 48.1999C26.0194 48.2049 18.9435 48.683 12.2924 48.1128C11.4 48.0365 10.5675 47.9728 9.90916 47.2955C8.43604 45.7805 8.82483 43.2433 8.8911 41.3291C9.71476 36.99 9.30956 24.5799 9.25023 19.7576C9.22246 17.5149 8.8829 14.9392 9.36826 12.7469C9.85803 13.58 9.32218 14.7159 9.85677 15.6436C11.0118 15.0804 11.9137 14.649 13.1842 15.0748C15.2399 16.9656 13.8223 20.5693 14.5867 23.0189C14.6075 23.0858 14.6327 23.1514 14.6555 23.2176C14.8694 26.7167 13.9782 38.9748 15.0764 41.2913C15.1989 41.5492 15.2917 41.7126 15.5662 41.8122C16.5698 42.1774 17.6213 42.2884 18.6803 42.349C26.6733 42.8087 34.8903 42.4259 42.9098 42.4682C50.9874 42.511 59.2991 42.9878 67.3545 42.5621C68.5632 42.4978 69.6614 42.3319 70.7665 41.804C71.2538 41.162 71.2923 40.4594 71.3617 39.6805C71.8105 34.6533 71.3756 29.3675 71.4002 24.3131C71.4223 19.704 72.181 12.5003 71.3788 8.14474C71.2506 7.44719 70.8215 6.9294 70.374 6.40214L70.3727 6.40151Z" fill="url(#paint0_linear_1_112)"/>
<path d="M14.6542 23.217C14.7337 20.8368 14.0723 8.57237 14.9672 7.20882C18.674 5.78346 24.3317 6.51001 28.284 6.52704L56.6381 6.59263C60.9476 6.59831 65.894 7.05556 70.1297 6.44001C70.2111 6.42802 70.2919 6.41415 70.3727 6.4009C70.8202 6.92816 71.2494 7.44596 71.3775 8.1435C72.1803 12.499 71.4217 19.7028 71.399 24.3119C71.3743 29.3662 71.8092 34.652 71.3605 39.6793C71.291 40.4582 71.2525 41.1614 70.7653 41.8028C69.6601 42.3307 68.5625 42.4966 67.3532 42.5609C59.2978 42.9866 50.9861 42.5098 42.9085 42.4669C34.8891 42.4247 26.672 42.8075 18.6791 42.3477C17.62 42.2872 16.5685 42.1762 15.5649 41.811C15.291 41.7114 15.1976 41.548 15.0752 41.2901C13.977 38.9735 14.8682 26.7154 14.6542 23.2164V23.217Z" fill="white"/>
<path d="M40.8554 24.648C43.6855 21.2467 47.6347 14.0902 50.6194 11.7592C51.0782 11.6204 51.3989 11.5908 51.8565 11.7283C54.4309 12.5003 64.4228 24.2084 65.4907 26.8598C65.8094 27.6501 65.3165 28.5128 65.0041 29.2482C65.148 31.5414 65.8214 34.5271 64.4449 36.5232C63.7115 37.0883 62.3494 37.0745 61.4437 37.1293C54.1261 37.5721 46.6014 37.2202 39.2611 37.2334C34.8474 37.241 29.7742 37.7354 25.4463 37.1867C23.8647 37.2063 21.9914 37.4522 20.5833 36.6336C20.3428 36.3107 20.0361 36.0288 19.9919 35.6195C19.7906 33.7242 28.729 22.1214 30.6913 19.8699C31.4682 18.9774 32.5431 17.8674 33.7719 17.7728C36.4581 18.8172 38.8401 22.5106 40.8548 24.648H40.8554Z" fill="#92CCF2"/>
<path d="M34.1929 25.0176C35.519 26.7078 36.7807 28.6604 38.368 30.1104C39.3476 31.0047 40.6534 31.9199 42.0521 31.7748C42.9098 31.6859 43.6388 31.2065 44.2296 30.6023C46.2947 28.4883 50.2426 21.7178 52.3885 18.8002C54.1267 21.0821 60.153 29.5939 62.617 30.0221C63.5777 30.1892 64.2511 29.7843 65.0041 29.2476C65.148 31.5408 65.8214 34.5265 64.4449 36.5226C63.7115 37.0877 62.3494 37.0739 61.4437 37.1287C54.1261 37.5715 46.6014 37.2195 39.2611 37.2328C34.8474 37.2404 29.7742 37.7348 25.4463 37.1861C27.8536 32.8823 31.1981 28.9316 34.1929 25.0176Z" fill="#C1E3F8"/>
</g>
<defs>
<linearGradient id="paint0_linear_1_112" x1="8.79568" y1="24.4024" x2="77.266" y2="24.4024" gradientUnits="userSpaceOnUse">
<stop stop-color="#90B1EB"/>
<stop offset="1" stop-color="#7DBEBA"/>
</linearGradient>
<clipPath id="clip0_1_112">
<rect width="84" height="62" fill="white"/>
</clipPath>
</defs>
</svg>
