<svg width="77" height="71" viewBox="0 0 77 71" fill="none" xmlns="http://www.w3.org/2000/svg">
<g clip-path="url(#clip0_1_152)">
<path d="M65.5081 48.4269C66.4241 48.3818 67.4129 48.2225 68.2825 48.5587C68.6907 49.2659 68.5318 49.5844 68.4377 50.3788C67.8798 50.593 67.5492 50.5862 66.9674 50.5527C66.1289 50.0585 65.8894 49.2769 65.5081 48.4275V48.4269Z" fill="#94BCE8"/>
<path d="M7.96095 48.433C8.83483 48.3806 9.58833 48.3238 10.4439 48.5538C10.9047 49.2683 10.7733 49.7125 10.758 50.549C10.0571 50.715 9.69345 50.7473 9.00289 50.5265C8.31783 49.8956 8.19378 49.3159 7.96156 48.433H7.96095Z" fill="#94BCE8"/>
<path d="M36.9068 48.4696C37.8272 48.4233 38.7976 48.2652 39.6654 48.624C39.9997 49.4227 39.7839 49.7644 39.5853 50.5911C38.9687 50.8657 38.8642 50.92 38.2012 50.837C37.4055 50.2128 37.2222 49.3891 36.9068 48.4696Z" fill="#94BCE8"/>
<path d="M37.1647 41.2577C38.1003 41.2278 38.6039 41.1173 39.4649 41.5798C40.1842 42.91 39.8591 44.982 39.8628 46.4909C38.8783 46.4946 38.2953 46.6166 37.4208 46.0852C36.7767 44.7355 37.139 42.7519 37.1653 41.2583L37.1647 41.2577Z" fill="#94BCE8"/>
<path d="M66.2567 41.132C66.8244 41.1198 67.3793 41.1418 67.9458 41.1771C68.4188 41.6079 68.5935 42.0704 68.7274 42.6946C68.9333 43.6556 68.8142 45.6813 68.2849 46.508C67.4862 46.5019 66.7272 46.4415 65.9364 46.3305C65.7207 45.1114 65.5783 42.1272 66.2573 41.1326L66.2567 41.132Z" fill="#94BCE8"/>
<path d="M8.25795 40.7903C9.27911 40.794 9.90367 40.6506 10.7293 41.2876C11.3477 42.6866 10.9609 44.9009 10.9627 46.4519C9.97333 46.4775 9.2785 46.605 8.47856 45.9937C7.80145 44.5555 8.20906 42.3633 8.25733 40.7903H8.25795Z" fill="#94BCE8"/>
<path d="M10.5881 36.7365L10.7287 36.5302C10.7097 35.7108 10.2599 35.2605 9.8175 34.5948C11.0165 33.3514 28.2999 26.2077 30.7401 25.489C31.7161 25.2016 33.0538 26.0808 34.3744 25.8093C34.4703 25.7898 34.5651 25.7654 34.6604 25.744C35.376 25.8453 36.3813 25.8508 36.8916 26.3883C36.8641 30.433 36.1686 34.4411 35.9902 38.476C27.3326 38.4211 18.4824 38.7579 9.85172 38.1947C9.8175 37.4534 10.1279 37.2978 10.5881 36.7371V36.7365Z" fill="#94BCE8"/>
<path d="M10.1939 71C6.59328 70.047 4.75506 70.3179 2.02095 67.0414C1.92683 66.9291 1.83578 66.815 1.74778 66.6985C1.65978 66.5819 1.57422 66.4629 1.49233 66.3421C1.40983 66.2207 1.331 66.0981 1.25522 65.973C1.17945 65.8479 1.10672 65.7216 1.03706 65.5923C0.96739 65.4635 0.90139 65.3336 0.838445 65.2018C0.775501 65.0694 0.716223 64.9357 0.660001 64.8009C0.603779 64.6661 0.551223 64.53 0.502334 64.3921C0.452834 64.2548 0.407612 64.1157 0.365445 63.976C0.323279 63.8356 0.284779 63.6947 0.249945 63.5531C0.215112 63.4116 0.183945 63.2688 0.155834 63.1248C0.128334 62.9814 0.104501 62.8374 0.0837231 62.6922C0.0635564 62.5476 0.0464453 62.4024 0.033612 62.2566C0.0207786 62.1114 0.0110009 61.9655 0.00550085 61.8191C8.54314e-07 61.6733 -0.00183248 61.5274 8.54488e-07 61.381C0.00183419 61.2352 0.00733419 61.0887 0.0165009 60.9429C0.0256675 60.7971 0.0385009 60.6519 0.0550009 60.5067C0.0727231 60.3535 0.0947231 60.201 0.119779 60.0484C0.145445 59.8959 0.174779 59.7446 0.207779 59.5939C0.240779 59.4432 0.278056 59.2931 0.31839 59.1442C0.359334 58.9953 0.403334 58.8477 0.451612 58.7006C0.49989 58.5542 0.551834 58.4084 0.606834 58.2644C0.661834 58.1204 0.721112 57.9776 0.784056 57.8366C0.84639 57.6951 0.91239 57.556 0.982056 57.4181C1.05172 57.2802 1.12445 57.1441 1.20083 57.0099C1.27722 56.8757 1.35728 56.7433 1.43978 56.6133C1.52289 56.4833 1.60906 56.3552 1.69828 56.2295C1.78811 56.1038 1.88039 55.98 1.97572 55.8585C2.07106 55.7371 2.17006 55.6181 2.2715 55.5016C2.37295 55.3857 2.47745 55.2716 2.585 55.1605C2.69195 55.0495 2.80195 54.9415 2.915 54.8359C3.02745 54.7304 3.14295 54.6279 3.26089 54.5278C3.37883 54.4277 3.49922 54.3313 3.62206 54.2374C5.80495 52.5741 8.767 52.0628 11.4467 52.4679C14.7706 52.9707 16.7279 54.8079 18.6688 57.4248C19.5177 60.3926 19.7267 63.4207 18.1677 66.2164C16.9162 68.4606 14.6624 69.9115 12.2179 70.5668C11.5506 70.7468 10.8759 70.8908 10.1927 70.9988L10.1939 71Z" fill="#94BCE8"/>
<path d="M8.59161 54.6785C9.68734 54.5888 10.7513 54.6334 11.7981 55.0031C13.5337 55.6169 14.9374 56.8519 15.7068 58.528C15.7569 58.6366 15.8039 58.7458 15.8486 58.8568C15.8932 58.9673 15.9347 59.0795 15.9732 59.1924C16.0117 59.3059 16.0472 59.4194 16.0796 59.5341C16.1119 59.6488 16.1419 59.7647 16.1682 59.8813C16.1951 59.9978 16.2183 60.1143 16.2384 60.2321C16.2586 60.3499 16.2763 60.4676 16.2904 60.586C16.3044 60.7044 16.3154 60.8233 16.3234 60.9423C16.3313 61.0613 16.3356 61.1809 16.3374 61.2999C16.3393 61.4194 16.3374 61.5384 16.3332 61.658C16.3289 61.777 16.3209 61.896 16.3099 62.015C16.2989 62.1339 16.2855 62.2523 16.2684 62.3707C16.2513 62.4884 16.2311 62.6062 16.2079 62.7233C16.1847 62.8405 16.1584 62.957 16.1291 63.073C16.0997 63.1883 16.0673 63.303 16.0319 63.4171C15.9964 63.5312 15.9579 63.6441 15.917 63.7557C15.8754 63.868 15.8314 63.9784 15.7844 64.0882C14.8237 66.2689 13.2134 67.2482 11.0764 68.0231C9.68795 68.0506 8.42845 68.0194 7.11884 67.4679C5.38756 66.7387 3.95206 65.3567 3.32017 63.5727C3.24928 63.3707 3.18878 63.1657 3.13806 62.9576C3.08734 62.7496 3.04761 62.5397 3.01828 62.3274C2.98895 62.115 2.97 61.9021 2.96145 61.6885C2.9535 61.475 2.95595 61.2608 2.96939 61.0473C2.98284 60.8337 3.00667 60.6214 3.04089 60.4097C3.07511 60.1985 3.11972 59.9893 3.17534 59.783C3.23095 59.5762 3.29634 59.3724 3.37211 59.1723C3.44789 58.9715 3.53345 58.7757 3.62878 58.5841C4.64934 56.498 6.47534 55.4058 8.59223 54.6785H8.59161Z" fill="white"/>
<path d="M8.30806 58.5603C8.41072 58.5469 8.51278 58.5316 8.61606 58.5206C9.79245 58.3949 10.967 58.5706 11.8733 59.3791C12.4221 59.869 12.7404 60.5268 12.7667 61.2632C12.8156 62.6288 12.0542 63.3896 11.1522 64.289C10.8442 64.3634 10.538 64.4446 10.2196 64.4659C9.37444 64.5227 8.43944 64.2542 7.80817 63.6782C7.22394 63.1462 6.93245 62.4762 6.88845 61.694C6.80778 60.2687 7.36633 59.5603 8.30806 58.5603Z" fill="#94BCE8"/>
<path d="M37.0828 52.4502C39.5236 52.3258 41.657 52.3959 43.8301 53.684C45.9702 54.9531 47.4143 57.2564 47.9539 59.6457C47.9887 59.794 48.0193 59.9435 48.0468 60.0936C48.0743 60.2437 48.0975 60.3944 48.1164 60.5457C48.136 60.697 48.1519 60.8483 48.1635 61.0003C48.1751 61.1522 48.1831 61.3047 48.1873 61.4567C48.1916 61.6092 48.1916 61.7611 48.1879 61.9137C48.1843 62.0662 48.1769 62.2187 48.1653 62.3707C48.1537 62.5226 48.1391 62.6739 48.1201 62.8252C48.1012 62.9765 48.0786 63.1272 48.0517 63.2773C48.0248 63.4274 47.9948 63.5769 47.96 63.7252C47.9258 63.8741 47.8879 64.0217 47.8457 64.1682C47.8042 64.3146 47.7589 64.4598 47.7094 64.6044C47.6606 64.749 47.608 64.8918 47.5518 65.034C47.4956 65.1755 47.4357 65.3158 47.3721 65.4544C47.3092 65.5929 47.2419 65.7301 47.1717 65.865C47.1014 66.0004 47.0274 66.1341 46.9504 66.2652C46.8734 66.397 46.7928 66.5264 46.7091 66.6539C45.1293 69.0249 42.8444 70.1623 40.1164 70.6925C37.4758 70.8029 35.2318 70.593 32.9817 69.0793C32.8491 68.9902 32.7183 68.8974 32.5906 68.8022C32.4628 68.7064 32.3369 68.6076 32.2141 68.5057C32.0913 68.4038 31.9709 68.2989 31.8529 68.1903C31.735 68.0823 31.6207 67.9712 31.5083 67.8571C31.3964 67.743 31.2871 67.6265 31.1813 67.5069C31.075 67.3873 30.9723 67.2653 30.8721 67.1408C30.7725 67.0157 30.6753 66.8888 30.5818 66.7589C30.4883 66.6295 30.3985 66.4977 30.3117 66.3635C30.2249 66.2292 30.1418 66.0932 30.0618 65.9547C29.9817 65.8168 29.9053 65.6764 29.8332 65.5337C29.7605 65.3915 29.6914 65.2475 29.6261 65.1017C29.5607 64.9565 29.4989 64.8088 29.4409 64.6599C29.3828 64.5111 29.3291 64.361 29.2783 64.2096C29.2282 64.0577 29.1818 63.9052 29.139 63.7514C29.0962 63.5977 29.0577 63.4427 29.0229 63.2871C28.9881 63.1309 28.9575 62.9747 28.9306 62.8173C28.5199 60.4218 29.0076 57.9092 30.4547 55.9348C32.1328 53.6455 34.386 52.8475 37.0828 52.4509V52.4502Z" fill="#94BCE8"/>
<path d="M36.9386 54.7047C37.9751 54.6224 39.0702 54.5925 40.0791 54.8799C41.9247 55.4064 43.5967 56.6139 44.4938 58.3296C45.3047 59.88 45.4954 61.6952 44.9387 63.3615C44.1656 65.6752 42.6238 66.7826 40.5405 67.7857C39.2486 67.9401 38.0368 68.0524 36.7596 67.685C36.6471 67.6533 36.5353 67.6192 36.4247 67.5825C36.314 67.5453 36.2041 67.5051 36.0953 67.4617C35.9865 67.4184 35.8789 67.3727 35.7726 67.3245C35.6663 67.2756 35.5618 67.2244 35.4579 67.1701C35.3546 67.1158 35.2525 67.059 35.1523 66.9992C35.0515 66.9401 34.9525 66.8778 34.8553 66.8125C34.7582 66.7479 34.6628 66.6807 34.5693 66.6106C34.4752 66.541 34.3835 66.469 34.2937 66.3946C34.2039 66.3201 34.1159 66.2427 34.0297 66.1633C33.9435 66.0846 33.8604 66.0029 33.7785 65.9193C33.6967 65.8357 33.6172 65.7503 33.5402 65.6624C33.4632 65.5745 33.3887 65.4849 33.3166 65.3933C33.2444 65.3018 33.1742 65.2078 33.1069 65.1127C33.0397 65.0175 32.9749 64.9205 32.9126 64.8216C32.8503 64.7228 32.7904 64.6227 32.7336 64.5208C32.6767 64.4189 32.6229 64.3158 32.571 64.2109C32.4677 63.9985 32.3754 63.7813 32.2948 63.5592C32.2135 63.3371 32.1444 63.112 32.087 62.8826C32.0296 62.6531 31.9837 62.4219 31.9501 62.1882C31.9165 61.9545 31.8951 61.7196 31.8853 61.4835C31.8762 61.248 31.8786 61.0119 31.8939 60.7763C31.9092 60.5408 31.936 60.3065 31.9752 60.0734C32.0143 59.841 32.0656 59.6103 32.1285 59.3828C32.1915 59.1552 32.2667 58.9312 32.3528 58.7116C33.2432 56.5041 34.8358 55.5266 36.9392 54.7041L36.9386 54.7047Z" fill="white"/>
<path d="M37.7178 58.3034C38.0991 58.3095 38.4884 58.3168 38.8648 58.3827C39.7387 58.5359 40.5827 59.0728 41.0636 59.8215C41.4767 60.4652 41.5849 61.2401 41.4223 61.9826C41.1284 63.3255 40.2716 63.9204 39.1698 64.6258C38.9644 64.6166 38.7585 64.6105 38.5544 64.5849C37.5772 64.4623 36.6447 64.0223 36.0519 63.2175C35.574 62.569 35.3992 61.8124 35.5361 61.0186C35.7689 59.6646 36.6276 59.0148 37.7178 58.3028V58.3034Z" fill="#94BCE8"/>
<path d="M73.7238 68.737C73.1512 68.8724 72.4741 69.3703 71.9272 69.6357C69.9301 70.604 67.6451 71.1904 65.4402 70.7029C62.8277 70.125 60.4701 68.5997 59.0486 66.3189C57.7023 64.159 57.1102 61.4322 57.7482 58.941C57.8178 58.678 57.9003 58.4193 57.9951 58.1649C58.0904 57.9099 58.1979 57.6609 58.3177 57.4169C58.4375 57.1728 58.5689 56.9354 58.7119 56.7036C58.8549 56.4723 59.0089 56.2484 59.1745 56.0324C59.3395 55.8164 59.5149 55.6084 59.7007 55.4101C59.8858 55.2112 60.0808 55.0214 60.2855 54.842C60.4896 54.662 60.7023 54.493 60.9229 54.3344C61.1435 54.1751 61.3721 54.0275 61.6079 53.8908C64.207 52.3612 67.7618 52.1025 70.6414 52.8889C72.9055 53.507 75.001 54.947 76.1108 57.0502C77.5255 59.7311 77.0232 62.6324 76.175 65.3866C75.3946 66.5325 74.6393 67.6936 73.7232 68.7382L73.7238 68.737Z" fill="#94BCE8"/>
<path d="M66.8213 54.4253C67.881 54.4436 68.9566 54.7151 69.9129 55.1691C71.7084 56.0221 73.0773 57.4407 73.6896 59.3541C73.7556 59.5573 73.8118 59.7629 73.8571 59.9709C73.9023 60.1796 73.9377 60.3895 73.9628 60.6018C73.9872 60.8142 74.0013 61.0265 74.0049 61.2394C74.0086 61.453 74.0019 61.6659 73.9842 61.8783C73.9664 62.0906 73.9389 62.3023 73.9004 62.5122C73.8619 62.7221 73.8131 62.9296 73.7538 63.1346C73.6945 63.3396 73.6261 63.5415 73.5466 63.7398C73.4678 63.9381 73.3786 64.1315 73.2802 64.3213C72.1142 66.5355 70.3169 67.3373 68.0515 67.992C66.6906 67.9669 65.5294 67.8644 64.2871 67.2195C62.5289 66.3067 61.2572 64.7496 60.764 62.8289C60.7072 62.608 60.6613 62.3841 60.6277 62.1583C60.5935 61.9326 60.5715 61.7056 60.5611 61.4774C60.5501 61.2492 60.5513 61.021 60.5648 60.7934C60.5776 60.5652 60.6021 60.3382 60.6381 60.1131C60.6742 59.8873 60.7224 59.6646 60.7817 59.4438C60.841 59.2235 60.9113 59.0063 60.9926 58.7934C61.0744 58.5798 61.1667 58.3711 61.27 58.1673C61.3727 57.9635 61.4863 57.7653 61.6098 57.5731C62.8791 55.6218 64.6342 54.8615 66.8219 54.4241L66.8213 54.4253Z" fill="white"/>
<path d="M66.0428 58.5499C66.322 58.5298 66.6019 58.5127 66.8824 58.5127C67.9054 58.5127 68.962 58.7799 69.677 59.5542C70.1953 60.1156 70.4257 60.7733 70.3407 61.5335C70.1849 62.9399 69.2444 63.7264 68.181 64.5172C67.8639 64.5489 67.551 64.5672 67.232 64.5544C66.3135 64.5166 65.5007 64.1828 64.8975 63.4708C64.3805 62.86 64.207 62.1657 64.2687 61.3767C64.3744 60.0277 65.0742 59.3858 66.0428 58.5505V58.5499Z" fill="#94BCE8"/>
<path d="M45.8077 21.8696L46.0038 21.6731C46.2367 20.3045 44.6796 17.5772 44.4406 16.006C45.1892 14.6076 50.0934 12.4733 51.6175 11.2664C53.2809 9.94849 54.3956 7.92767 55.9228 6.4566C56.8303 7.59941 58.6752 10.8753 59.6836 11.5166C59.7899 11.5843 59.9011 11.6441 60.0093 11.7088C61.0402 13.5996 61.2834 15.7266 61.5542 17.831C65.1206 18.2099 68.3925 19.0049 70.7312 21.9483C72.4558 24.118 73.1213 26.9954 72.7949 29.7222C72.3592 33.3685 70.3639 35.7432 67.9965 38.357C57.6987 38.609 47.3678 38.39 37.0645 38.4473C38.2641 36.634 43.637 27.5366 44.7981 26.5531C45.4483 26.5598 46.7971 26.7715 47.2584 26.3603C46.9052 24.8087 46.1957 23.3956 45.8071 21.8702L45.8077 21.8696Z" fill="#94BCE8"/>
<path d="M24.0319 12.5721C26.6573 7.41879 30.0544 3.39486 35.5868 1.27337C35.882 1.16049 36.179 1.05494 36.4791 0.956701C36.7791 0.858467 37.0816 0.766945 37.3866 0.683355C37.6909 0.600374 37.9977 0.524106 38.3063 0.455769C38.6143 0.387432 38.9241 0.327028 39.2358 0.273334C39.5474 0.220251 39.8597 0.17449 40.1738 0.137271C40.4873 0.0994419 40.8021 0.0695446 41.1168 0.0469691C41.4315 0.0250037 41.7474 0.0103602 42.0634 0.00364853C42.3787 -0.00306311 42.6947 -0.00245296 43.0106 0.00669927C43.3266 0.0152414 43.6419 0.0323255 43.9566 0.0561213C44.2713 0.0805273 44.5861 0.112865 44.8989 0.152525C45.2124 0.192185 45.5247 0.239776 45.8358 0.29469C46.1468 0.349603 46.4561 0.412448 46.7641 0.483226C47.0714 0.553393 47.3776 0.631492 47.6819 0.716913C47.9857 0.802334 48.2876 0.895076 48.587 0.995751C48.8864 1.09643 49.1834 1.20381 49.4774 1.31913C49.7713 1.43384 50.0622 1.55587 50.3507 1.68522C54.5948 3.584 58.3391 7.35473 60.0099 11.7075C59.9017 11.6435 59.7905 11.5831 59.6842 11.5153C58.6758 10.8747 56.8309 7.59817 55.9234 6.45537C54.3962 7.92704 53.2816 9.94786 51.6181 11.2652C50.094 12.472 45.1898 14.607 44.4412 16.0048C44.6802 17.5759 46.2367 20.3033 46.0044 21.6719L45.8083 21.8683C44.4547 18.8835 43.5887 15.5557 42.6164 12.4238C39.0005 16.3123 35.8569 20.8579 32.6113 25.0649L32.6798 25.3602L34.6616 25.7422C34.5663 25.7641 34.4716 25.7879 34.3756 25.8075C33.0556 26.079 31.7179 25.1998 30.7413 25.4871C28.3006 26.2059 11.0177 33.3495 9.81872 34.593C10.2612 35.2587 10.7103 35.7096 10.7299 36.5284L10.5893 36.7346C9.48933 35.3886 8.35817 34.0439 7.50933 32.5215C5.73345 29.3329 5.42972 25.3895 6.43011 21.9019C6.49367 21.678 6.56272 21.4553 6.63728 21.2338C6.71245 21.0129 6.7925 20.7939 6.87745 20.5767C6.963 20.3601 7.05345 20.1453 7.14939 19.9323C7.24533 19.72 7.34678 19.5101 7.45311 19.3021C7.55945 19.0946 7.67067 18.8896 7.78739 18.6876C7.9035 18.4857 8.02511 18.2868 8.15161 18.0903C8.2775 17.8938 8.40889 17.701 8.54517 17.5113C8.68084 17.3221 8.82139 17.136 8.96622 16.953C9.11167 16.7699 9.26078 16.5912 9.41478 16.416C9.56878 16.2403 9.72706 16.0689 9.889 15.9011C10.0516 15.7333 10.2178 15.5698 10.3883 15.4105C10.5588 15.2513 10.7329 15.0963 10.9108 14.945C11.0886 14.7943 11.2707 14.6478 11.4559 14.5057C11.6411 14.3635 11.8299 14.2262 12.0218 14.0938C12.2137 13.9608 12.4092 13.8333 12.6072 13.71C12.8058 13.5874 13.0069 13.469 13.211 13.3562C16.7548 11.433 20.2528 11.472 24.0326 12.5697L24.0319 12.5721Z" fill="url(#paint0_linear_1_152)"/>
</g>
<defs>
<linearGradient id="paint0_linear_1_152" x1="5.86371" y1="18.3669" x2="60.0099" y2="18.3669" gradientUnits="userSpaceOnUse">
<stop stop-color="#90B1EB"/>
<stop offset="1" stop-color="#7DBEBA"/>
</linearGradient>
<clipPath id="clip0_1_152">
<rect width="77" height="71" fill="white"/>
</clipPath>
</defs>
</svg>
