<svg width="80" height="63" viewBox="0 0 80 63" fill="none" xmlns="http://www.w3.org/2000/svg">
<g clip-path="url(#clip0_1_121)">
<path d="M12.5135 30.0866C12.9215 29.0568 13.011 28.818 13.8699 28.1432C14.6674 28.036 15.147 27.9943 15.8793 28.4533C16.4312 28.8 16.8929 29.5672 17.2504 30.1001C15.7418 30.3608 13.9038 30.893 12.5128 30.0866H12.5135Z" fill="#94BCE8"/>
<path d="M25.928 33.0013L28.5552 33.4475C29.2964 33.9733 29.9557 34.3534 30.3247 35.2195C30.2742 35.8538 30.1399 36.1889 29.8591 36.761C29.5029 37.4858 29.3111 38.1464 29.6136 38.9322C29.8003 39.4163 29.934 39.6282 30.4162 39.8311C30.9706 40.0641 31.6715 40.0802 32.2676 40.1424C32.7926 40.7087 32.8348 41.1421 32.8527 41.926C32.8885 43.5605 30.9444 44.6673 31.2168 46.1183C31.566 47.9769 33.3701 47.8768 32.414 50.1604C31.1158 51.2236 29.141 50.6901 28.8954 52.8254C28.7202 54.3489 29.3706 54.9896 28.0717 56.2608C27.7327 56.5927 27.4405 56.8245 26.9896 56.9863L26.6385 56.8855C25.7016 56.621 24.9029 56.3333 24.0069 56.8836C23.3086 57.3118 23.0949 57.9705 22.7701 58.6831C22.4535 59.3765 22.1222 59.833 21.3727 60.0769C20.8765 60.2381 20.3207 60.1745 19.8065 60.1437C18.6094 59.2185 18.2775 58.5515 16.7548 58.2189C16.5476 58.459 16.3308 58.6953 16.128 58.9386C15.4885 59.7065 15.0351 60.24 14.0163 60.4743C13.3116 60.6361 12.7296 60.6117 12.1189 60.1912C11.3572 59.6673 11.2773 58.7839 11.1647 57.939L10.1038 56.6717C10.6857 56.8887 11.0502 56.967 11.6866 56.9587L11.8055 56.7847L13.4088 56.8014C13.5815 56.4322 13.4632 56.169 13.561 55.9083C13.8987 55.0057 18.5134 54.6378 20.3367 51.9112C23.1391 50.1296 24.2442 48.3576 24.9732 45.1103C24.7136 43.5303 24.4616 42.1526 23.7524 40.7068C24.3887 38.0976 24.7967 35.4532 25.9274 33.0013H25.928Z" fill="#94BCE8"/>
<path d="M25.928 33.0013L28.5552 33.4475C27.3299 34.5743 25.1561 41.7083 25.0314 43.6716C25.0071 44.0542 25.0909 44.4702 25.05 44.8394C25.0397 44.9325 24.9994 45.0204 24.9739 45.1103C24.7142 43.5303 24.4622 42.1526 23.753 40.7068C24.3893 38.0976 24.7974 35.4532 25.928 33.0013Z" fill="#99B7C2"/>
<path d="M56.5386 58.1952C55.885 58.85 55.6343 59.2186 54.7352 59.4818L53.6173 58.8179C51.7934 58.8346 51.8471 61.6743 50.4894 62.6443C49.4636 62.4845 48.9494 61.6492 48.2524 60.9045C47.9556 60.8685 47.6966 60.8371 47.398 60.8685C46.4527 60.9693 45.8407 61.951 45.3016 62.643L45.0247 63.0006L43.949 62.9031C43.0742 62.2238 43.2168 61.2993 42.8311 60.2727C41.0399 58.8834 40.7016 60.491 38.8904 60.258C38.2234 59.72 37.9248 59.6205 37.6933 58.7749C37.935 58.3865 38.2202 57.9737 38.391 57.5487C38.6915 56.8014 38.4338 56.3841 38.1499 55.7074C37.2808 55.0789 36.7691 55.1784 35.7491 55.1347C35.0898 54.6372 35.1147 54.4651 34.8819 53.6973C35.1537 52.9647 35.4754 52.7971 36.0516 52.3182C36.8791 51.6306 37.424 51.2095 37.5302 50.111C37.1388 49.3547 36.6438 49.024 35.9614 48.5554L35.6852 48.3692C35.3987 47.6354 35.4019 47.5583 35.5675 46.7853C36.6118 46.2223 37.557 46.9343 38.65 46.4297C39.3592 45.2657 39.2032 43.7653 39.3752 42.4364L39.858 42.2418L40.0857 42.3914C41.3155 43.1856 41.7996 43.4206 43.2027 43.1233C44.0558 42.3645 43.8966 41.6647 44.1364 40.5835C44.6941 40.0654 45.0612 39.9819 45.8094 39.8613C46.1797 39.8015 46.188 39.9177 46.4751 40.1309C46.5647 40.8975 46.6325 41.5414 46.9695 42.2412C49.4764 43.3339 49.296 41.0894 51.237 40.8769C53.2687 41.9683 51.3706 43.2382 52.3037 44.3213C53.2061 45.3684 54.1928 45.2272 55.429 45.4211C56.2732 45.5533 56.7189 46.3186 57.1807 46.9638C56.7266 47.1558 56.3282 47.4248 56.0826 47.8671C55.7296 48.5021 55.5461 49.042 55.7661 49.7489C56.043 50.64 56.8903 51.0496 57.6424 51.4836L57.9801 51.6762C58.3619 52.4742 58.257 52.7984 58.1809 53.6639C57.1935 53.8269 56.4088 53.8828 55.6305 54.5749C55.3248 55.2702 55.1962 55.6567 55.4885 56.4046C55.7309 57.0248 56.183 57.6309 56.5386 58.1945V58.1952Z" fill="#99B7C2"/>
<path d="M44.6001 46.6216C45.4999 46.5183 46.5161 46.4078 47.4178 46.5369C48.9002 46.7494 50.334 47.688 51.1628 48.9367C51.9321 50.0975 52.1477 51.5317 51.8215 52.8806C51.34 54.8728 50.036 55.8974 48.4122 56.942C47.451 57.0588 46.4118 57.1628 45.4506 57.0043C44.0296 56.7686 42.5875 55.7247 41.8233 54.5152C41.0674 53.3185 40.871 51.8945 41.2304 50.5289C41.735 48.6087 42.9981 47.5988 44.6001 46.6223V46.6216Z" fill="white"/>
<path d="M45.1283 48.4039C45.8657 48.3127 46.7073 48.1593 47.4414 48.3076C48.3349 48.488 49.2692 49.1146 49.7623 49.8837C50.2035 50.5732 50.318 51.4098 50.1287 52.2033C49.816 53.5162 48.9437 54.216 47.875 54.9318C47.373 54.9864 46.8576 55.0461 46.3523 55.0288C45.3764 54.9941 44.375 54.5344 43.715 53.8115C43.6472 53.7371 43.5832 53.6594 43.5225 53.5785C43.4624 53.4976 43.4074 53.4135 43.3562 53.3262C43.305 53.2395 43.2584 53.1496 43.2161 53.0578C43.1739 52.966 43.1368 52.8723 43.1049 52.7766C43.0723 52.6809 43.0454 52.584 43.0236 52.4851C43.0013 52.3863 42.9846 52.2867 42.9725 52.1866C42.961 52.0864 42.9546 51.9856 42.9527 51.8848C42.9514 51.7841 42.9552 51.6833 42.9648 51.5825C43.0927 50.0564 44.0123 49.277 45.1283 48.4026V48.4039Z" fill="#94BCE8"/>
<path d="M65.0934 13.8322C66.4895 13.8931 67.8357 13.9663 69.2126 14.2251C69.6807 14.9711 69.352 15.9944 69.5093 16.9067C70.0939 17.4794 70.1904 17.5468 70.9828 17.7305C72.1326 17.4871 72.9378 16.5703 73.7915 15.8057L77.2584 19.1878L77.0544 19.3631C76.1776 20.1264 75.4869 20.6696 75.4019 21.8605C76.3618 23.7275 77.259 22.934 78.8917 23.5015C79.5894 24.4311 79.7384 25.8134 79.9994 26.9337C79.6822 27.0615 79.3675 27.1976 79.0497 27.3221C78.1812 27.6637 77.7719 27.8184 77.197 28.5811C77.204 29.867 78.2087 30.4275 78.6576 31.5703C78.9403 32.2906 78.6391 32.9513 78.35 33.6125C77.4579 34.3862 77.0026 34.0266 75.9774 34.2847C75.2222 34.4748 75.0297 34.7592 74.621 35.3922C74.935 36.031 75.0962 36.4817 75.1972 37.1853C74.8365 38.3262 73.835 38.9034 72.9231 39.6025C72.2695 38.9425 71.4822 38.0816 70.5799 37.7914C69.8879 37.5693 69.8246 37.6155 69.1832 37.9532C68.6684 38.9573 68.5635 39.9608 68.4164 41.0618L67.7967 41.3257C67.0977 41.3559 66.2049 41.481 65.5437 41.2563C64.5467 40.918 63.8669 39.1242 63.432 38.2177L62.8219 38.0989C61.6605 38.556 61.0977 39.1338 60.3073 40.0481C59.2668 39.4041 58.0523 38.8083 57.2657 37.8569C57.4889 36.9658 57.6603 36.0836 57.8029 35.1765C57.6399 34.6982 57.7051 34.4998 57.2306 34.2584C56.1977 33.732 55.0485 34.2026 54.0272 34.5281L52.5774 31.4336C52.8057 31.2474 53.0289 31.058 53.2547 30.8686C53.6652 30.5245 54.1551 30.1714 54.4896 29.7508C54.9871 29.1255 54.9392 28.6934 54.8074 27.9558C54.118 26.994 53.1031 26.6352 52.0639 26.1492C52.3843 25.2131 52.5979 24.1435 53.3794 23.4925C54.0438 23.4257 54.8266 23.3872 55.415 23.036C57.6418 21.709 56.5079 20.2889 57.1493 18.4572C57.4851 17.4961 59.4094 16.0381 60.3079 15.5682C60.8803 16.1479 61.461 16.7193 62.0493 17.2823C62.6115 17.4229 62.8762 17.6149 63.3911 17.2464C64.3932 16.528 64.8332 14.9704 65.0947 13.8322H65.0934Z" fill="#94BCE8"/>
<path d="M64.2531 21.0169C65.7234 20.8917 67.122 20.9071 68.4995 21.5042C68.7093 21.5934 68.9133 21.6936 69.1122 21.8034C69.3117 21.9138 69.5049 22.0339 69.6916 22.1642C69.879 22.2939 70.0587 22.4332 70.232 22.5815C70.4053 22.7298 70.5697 22.8864 70.727 23.0514C70.8843 23.2164 71.0327 23.3891 71.1727 23.5695C71.3128 23.75 71.4426 23.9368 71.5635 24.13C71.6843 24.3239 71.795 24.5229 71.8954 24.7277C71.9958 24.9325 72.086 25.1418 72.1653 25.3563C72.2439 25.5694 72.3111 25.7858 72.3667 26.006C72.4223 26.2262 72.4671 26.4483 72.5004 26.6737C72.5336 26.8984 72.5554 27.1244 72.565 27.351C72.5752 27.5783 72.5733 27.8049 72.5598 28.0315C72.5464 28.2582 72.5208 28.4835 72.4844 28.7082C72.4479 28.9323 72.4 29.1538 72.3405 29.3733C72.281 29.5923 72.2107 29.808 72.1288 30.0198C72.0469 30.2317 71.9549 30.4391 71.8525 30.6413C70.8044 32.6893 69.1096 33.6427 67.0485 34.3656C65.7195 34.5467 64.484 34.4003 63.2433 33.8777C63.0323 33.791 62.8257 33.6941 62.6243 33.5862C62.4228 33.4784 62.2271 33.3609 62.0378 33.2338C61.8485 33.106 61.6656 32.9692 61.4898 32.8229C61.3139 32.6771 61.1457 32.5224 60.9852 32.3593C60.8247 32.1963 60.6731 32.0255 60.5305 31.847C60.3879 31.6685 60.2542 31.483 60.1301 31.291C60.0061 31.0991 59.8916 30.9013 59.7867 30.6978C59.6825 30.4943 59.5885 30.2856 59.5047 30.0725C58.8351 28.3391 58.8639 26.4663 59.6627 24.7791C60.6373 22.7214 62.2124 21.7552 64.2512 21.0175L64.2531 21.0169Z" fill="white"/>
<path d="M65.3953 23.3577C66.0182 23.4026 66.6769 23.4604 67.2787 23.6344C68.3134 23.9336 69.3015 24.8241 69.737 25.807C70.2077 26.8701 70.1246 28.1246 69.6571 29.173C68.9581 30.7408 67.7801 31.4843 66.242 32.0846C65.6946 32.0088 65.1171 31.9209 64.5927 31.743C63.5043 31.3732 62.49 30.4898 62.0001 29.4459C61.9425 29.3213 61.8914 29.1936 61.8473 29.0633C61.8031 28.9329 61.7654 28.8007 61.7353 28.6665C61.7046 28.5323 61.681 28.3968 61.6644 28.2601C61.6477 28.1234 61.6381 27.9866 61.6356 27.8492C61.633 27.7118 61.6381 27.5744 61.6496 27.437C61.6618 27.3003 61.681 27.1642 61.7066 27.0287C61.7328 26.8939 61.766 26.7604 61.8057 26.6287C61.8453 26.4971 61.892 26.3681 61.9457 26.241C62.6294 24.6032 63.8541 23.9689 65.3953 23.3583V23.3577Z" fill="#94BCE8"/>
<path d="M17.251 30.0995C17.4672 30.1669 18.14 30.4603 18.3248 30.4352C20.1871 30.1816 22.2143 27.9243 23.6283 30.6715C24.3938 32.159 24.2909 32.367 25.928 33.0014C24.7974 35.4532 24.39 38.0976 23.753 40.7068C24.4622 42.1532 24.7142 43.531 24.9739 45.1103C24.2448 48.3576 23.1397 50.1296 20.3373 51.9112C18.5141 54.6378 13.8999 55.0057 13.5616 55.9083C13.4644 56.1684 13.5821 56.4322 13.4094 56.8014L11.8062 56.7847L11.6872 56.9587C11.0515 56.967 10.6864 56.8887 10.1044 56.6717C9.68999 56.7519 9.24553 56.9028 8.84263 57.0319C7.86097 57.3471 6.50647 57.3856 5.55358 56.9054C5.06755 56.6601 5.03813 56.4483 4.86802 55.9732C4.93645 55.6226 5.00679 55.2702 5.05796 54.9171C5.56573 51.3969 2.54337 52.9487 1.25665 50.9026C0.856954 50.267 0.867826 49.9614 1.02451 49.252C1.63909 48.6863 2.10721 48.3191 2.31889 47.489C1.95053 46.2024 1.60647 45.9026 0.469406 45.2066L0.276911 45.0911C-0.0249424 44.3354 -0.09465 43.6902 0.137495 42.8909C0.387547 42.0274 1.17288 41.6704 1.89489 41.2345L2.23448 41.031C2.66296 40.3338 2.7397 40.0834 2.6847 39.2661C2.2543 38.5695 1.82391 38.0206 1.83094 37.1776C2.2575 36.3405 2.52738 35.8467 3.32102 35.328C4.24705 35.2349 5.0829 35.2047 5.78573 34.53C6.32484 34.0119 6.32612 33.5522 6.34467 32.8261C6.36193 32.1436 6.3549 31.8245 6.71431 31.2467C8.52223 29.6976 9.61901 31.1196 11.5101 30.8692C12.1087 30.7896 12.1848 30.5386 12.5147 30.086C13.9051 30.8923 15.743 30.3601 17.2523 30.0995H17.251Z" fill="url(#paint0_linear_1_121)"/>
<path d="M20.338 51.9112C18.9067 52.3952 17.5708 52.6232 16.0647 52.5602C14.102 52.4781 12.2653 51.9433 10.9255 50.4095C9.52372 48.8051 8.75822 46.3025 8.95135 44.1801C9.1528 41.9677 10.2796 40.0083 11.9405 38.5766C13.4849 37.2457 15.4885 36.37 17.5542 36.6082C20.1487 36.9061 22.2169 38.7281 23.7543 40.7074C24.4635 42.1539 24.7155 43.5316 24.9751 45.111C24.2461 48.3583 23.141 50.1302 20.3386 51.9118L20.338 51.9112Z" fill="white"/>
<path d="M15.493 39.4703C16.4785 39.3907 17.503 39.2867 18.4642 39.5794C19.8296 39.9954 21.0785 41.0759 21.665 42.3844C21.7373 42.5442 21.8018 42.7073 21.8575 42.8736C21.9131 43.0399 21.9611 43.2087 22.0007 43.3801C22.0404 43.5509 22.0711 43.7236 22.0935 43.8982C22.1159 44.0722 22.1293 44.2468 22.1344 44.4221C22.1395 44.598 22.1357 44.7733 22.1235 44.9486C22.1114 45.1238 22.0896 45.2978 22.0596 45.4705C22.0302 45.6439 21.9918 45.8146 21.9451 45.9841C21.8984 46.1536 21.8434 46.3199 21.7801 46.4836C21.0702 48.357 19.7311 49.2134 17.9967 49.9588C17.3278 49.9466 16.5994 49.9607 15.9407 49.84C14.4224 49.5614 12.9183 48.5284 12.1272 47.1962C12.0396 47.0499 11.9596 46.8996 11.888 46.7443C11.8164 46.5889 11.7531 46.4303 11.6987 46.2685C11.6437 46.1067 11.5983 45.9424 11.5612 45.7761C11.5241 45.6092 11.496 45.441 11.4768 45.2715C11.4576 45.102 11.4474 44.9319 11.4468 44.7611C11.4461 44.5903 11.4538 44.4202 11.4717 44.25C11.489 44.0806 11.5152 43.9117 11.551 43.7448C11.5862 43.5779 11.6303 43.4129 11.6834 43.2504C12.3095 41.2814 13.7829 40.3697 15.493 39.4709V39.4703Z" fill="#99B7C2"/>
<path d="M35.7274 2.28581e-06C36.6694 0.0301769 37.9222 0.0455851 38.8233 0.31844C39.7979 0.613766 40.1228 2.73176 40.612 3.65112C40.926 3.86812 41.2202 4.19362 41.6186 4.18271C42.9603 4.14547 43.9043 3.27105 44.7478 2.3427C49.9714 6.23972 46.1509 6.00153 48.3144 8.49511C49.1285 9.43309 49.7469 9.47482 50.9243 9.54094L51.159 9.5525C52.0741 10.19 52.3261 11.3707 52.6957 12.3831C52.3024 12.672 51.8944 12.9654 51.5472 13.3089C50.9371 13.9105 50.6397 14.4433 50.5911 15.2934C51.0176 16.3886 52.2935 16.6172 53.0238 17.4634C53.4043 17.9044 53.5463 18.4412 53.4683 19.0203C53.0961 21.7771 51.3738 20.2266 49.9445 21.3829C49.3063 21.8984 49.1221 22.568 49.0172 23.3442C49.163 24.0755 49.289 24.3888 49.7898 24.9512C50.2189 25.432 50.4318 25.744 50.6595 26.3443C50.0871 27.9198 47.7817 28.2042 46.3766 28.9214C46.353 29.1307 46.3255 29.3393 46.2935 29.5473C45.9917 31.4194 44.9403 31.9054 43.4796 32.9384C42.945 32.2226 42.3509 31.3783 41.5016 31.0137C41.0738 30.8301 40.5775 30.7543 40.1541 30.9848C39.3854 31.4027 38.5988 32.6592 38.3379 33.4681C38.2266 33.8129 37.706 33.9804 37.3876 34.1589C36.3221 34.157 35.6545 34.2751 34.6945 33.7307C34.3524 33.0668 34.0103 32.3677 33.5345 31.7886C31.1254 28.861 30.1444 32.1847 27.8223 31.7822C25.8494 31.44 26.9519 30.5103 26.3328 29.4375C26.0329 28.9181 24.8575 28.9509 24.7187 28.0964C24.5697 27.1783 25.2975 26.8104 24.649 25.8211C23.5855 24.1994 20.9238 24.8754 20.2043 23.4713C19.8065 22.6958 19.6684 21.9363 19.9018 21.1055C20.4365 20.6657 21.209 20.1348 21.4098 19.4343C21.6611 18.5606 21.3842 17.873 20.95 17.1481C20.4166 16.8849 19.756 16.6262 19.3243 16.2127C18.8613 15.7697 18.8108 15.0635 18.8242 14.4427C18.8428 13.6357 19.0097 13.3224 19.5539 12.7677C20.455 12.6053 21.4744 12.5436 22.0775 11.7771C22.5373 11.1928 22.6025 10.5996 22.5213 9.89277C22.2188 9.41896 21.8428 8.89701 21.6285 8.3789C21.3612 7.73304 21.6624 7.06021 22.0186 6.51707C22.4836 5.80893 22.9587 5.4051 23.7728 5.20544C24.2563 5.33769 24.7692 5.50461 25.2668 5.56368C25.7758 5.62467 26.1256 5.50847 26.5234 5.20672C27.5799 4.40485 27.8389 3.62865 28.0295 2.37288C28.0461 2.26309 28.0602 2.15331 28.0755 2.04288C28.6901 1.22304 29.9359 1.02016 30.8792 0.719698C31.2936 1.32319 31.7803 2.1058 32.4972 2.38123C33.1137 2.61877 33.7711 2.7048 34.362 2.36004C35.2465 1.8445 35.4735 0.921932 35.728 -0.00128174L35.7274 2.28581e-06Z" fill="#99B7C2"/>
<path d="M35.2298 9.11209C36.6214 9.11338 37.8563 9.19812 39.152 9.77208C41.0885 10.6305 42.6156 12.1777 43.369 14.1776C43.415 14.2983 43.4585 14.4196 43.4982 14.5429C43.5385 14.6661 43.5749 14.79 43.6088 14.9146C43.6421 15.0391 43.6728 15.1643 43.7003 15.2908C43.7271 15.4173 43.7514 15.5444 43.7719 15.6722C43.7924 15.7999 43.8096 15.9277 43.8237 16.0561C43.8378 16.1845 43.8486 16.3129 43.8563 16.4419C43.864 16.571 43.8678 16.7 43.8685 16.8291C43.8697 16.9581 43.8672 17.0872 43.8614 17.2162C43.8557 17.3453 43.8467 17.4743 43.8346 17.6027C43.8224 17.7311 43.8064 17.8595 43.7879 17.9873C43.7687 18.115 43.7469 18.2421 43.7214 18.3693C43.6964 18.4957 43.6676 18.6216 43.6357 18.7468C43.6037 18.872 43.5692 18.9965 43.5308 19.1198C43.4924 19.243 43.4508 19.3657 43.4067 19.4864C43.3626 19.6077 43.3153 19.7278 43.2641 19.8465C43.2136 19.9653 43.1599 20.0828 43.1036 20.199C41.8808 22.6919 39.8727 23.8103 37.362 24.6038C35.5956 24.6514 34.0096 24.4883 32.4505 23.583C32.3309 23.515 32.2126 23.4437 32.0968 23.3693C31.9811 23.2948 31.8666 23.2177 31.7547 23.1375C31.6428 23.0572 31.5328 22.9744 31.4247 22.8884C31.3173 22.8024 31.2117 22.7138 31.1081 22.6219C31.0045 22.5301 30.9041 22.4364 30.8056 22.3401C30.7072 22.2438 30.6119 22.1443 30.5179 22.0429C30.4245 21.9414 30.3343 21.8374 30.2461 21.7308C30.1578 21.6243 30.0727 21.5158 29.9903 21.4053C29.9078 21.2949 29.8285 21.1819 29.7517 21.067C29.675 20.9521 29.6014 20.8352 29.5311 20.7165C29.4607 20.5977 29.3929 20.4776 29.3283 20.3556C29.2638 20.2337 29.203 20.1098 29.1448 19.9846C29.0873 19.8594 29.0323 19.7323 28.9811 19.6045C28.9293 19.4761 28.8813 19.347 28.8366 19.2161C28.7918 19.0857 28.7509 18.9541 28.7131 18.8212C28.6754 18.6883 28.6409 18.5548 28.6095 18.42C28.5513 18.1728 28.5053 17.9231 28.472 17.6714C28.4388 17.4191 28.4183 17.1668 28.4113 16.9125C28.4036 16.6583 28.4094 16.4047 28.4279 16.1511C28.4465 15.8975 28.4778 15.6458 28.5219 15.3955C28.566 15.1451 28.6223 14.8979 28.692 14.6533C28.7617 14.4093 28.843 14.1686 28.937 13.9323C29.031 13.6967 29.1365 13.4656 29.2542 13.2409C29.3712 13.0155 29.4997 12.7972 29.6398 12.5847C30.9841 10.5573 32.9538 9.6257 35.2292 9.11145L35.2298 9.11209Z" fill="white"/>
<path d="M34.5008 10.8706C35.627 10.782 36.8382 10.7036 37.9145 11.0985C38.1173 11.1729 38.3161 11.257 38.5099 11.3521C38.7037 11.4471 38.8924 11.5524 39.0753 11.6673C39.2582 11.7829 39.4347 11.9068 39.6048 12.0409C39.7743 12.1751 39.9367 12.3177 40.0915 12.4685C40.2462 12.6194 40.3927 12.7786 40.5308 12.9449C40.6689 13.1118 40.7975 13.2852 40.9171 13.4656C41.0367 13.646 41.1467 13.8322 41.2471 14.0241C41.3475 14.2161 41.437 14.4125 41.5163 14.6141C41.5886 14.801 41.6512 14.991 41.7043 15.1836C41.7574 15.3768 41.8009 15.572 41.8348 15.7691C41.868 15.9668 41.8923 16.1652 41.9058 16.3649C41.9198 16.5646 41.9237 16.7649 41.9179 16.9652C41.9122 17.1655 41.8962 17.3645 41.87 17.5635C41.8444 17.7619 41.8086 17.959 41.7625 18.1535C41.7171 18.3487 41.6621 18.5413 41.5975 18.7307C41.5329 18.9201 41.4587 19.1056 41.3756 19.288C40.495 21.2346 39.0618 22.116 37.1816 22.873C36.3247 22.9044 35.5426 22.9147 34.7137 22.6521C33.0305 22.118 31.5974 20.9508 30.8306 19.3419C30.7404 19.1576 30.6605 18.9689 30.5895 18.7763C30.5185 18.5837 30.4577 18.3879 30.4066 18.1889C30.3554 17.9905 30.3138 17.7895 30.2831 17.586C30.2525 17.3831 30.232 17.179 30.2218 16.9735C30.2115 16.7687 30.2115 16.5633 30.2218 16.3585C30.2326 16.153 30.2531 15.9489 30.2844 15.7466C30.3151 15.5438 30.3567 15.3428 30.4079 15.1438C30.459 14.9454 30.5204 14.7496 30.5914 14.5563C31.3064 12.5937 32.7338 11.7251 34.4989 10.8699L34.5008 10.8706Z" fill="#99B7C2"/>
</g>
<defs>
<linearGradient id="paint0_linear_1_121" x1="-0.000659943" y1="43.2952" x2="25.928" y2="43.2952" gradientUnits="userSpaceOnUse">
<stop stop-color="#90B1EB"/>
<stop offset="1" stop-color="#7DBEBA"/>
</linearGradient>
<clipPath id="clip0_1_121">
<rect width="80" height="63" fill="white"/>
</clipPath>
</defs>
</svg>
