<svg width="70" height="68" viewBox="0 0 70 68" fill="none" xmlns="http://www.w3.org/2000/svg">
<g clip-path="url(#clip0_1_140)">
<path d="M42.0994 40.7614C43.2384 41.6541 44.6246 42.5655 44.9865 44.0362C44.7422 44.8386 44.5443 45.0118 43.7987 45.4121C43.6141 45.5109 43.4242 45.5989 43.2361 45.6903L43.2826 45.6551L40.3474 42.3877C40.9392 41.854 41.5231 41.3122 42.0989 40.762L42.0994 40.7614Z" fill="#94BCE8"/>
<path d="M49.9743 40.1782C50.3952 40.1964 50.8982 40.2361 51.2928 40.3827C51.9271 40.6183 52.1049 40.8784 52.352 41.4661C51.9339 43.6648 44.2186 50.324 42.1895 52.2717C41.7938 52.4336 41.3711 52.4614 40.9673 52.2984C40.3394 52.0451 40.0922 51.6187 39.8599 51.0253C39.9459 50.3473 40.118 49.9742 40.5659 49.4501C41.4382 48.4302 42.7469 47.663 43.7213 46.7159C45.9161 44.5819 47.5483 42.1515 49.9743 40.1788V40.1782Z" fill="#94BCE8"/>
<path d="M47.9813 47.6443C51.3312 52.4154 55.1181 56.9235 58.8051 61.4425C60.5102 63.5327 62.4177 65.5934 63.8996 67.8347C62.8392 67.9767 61.5064 68.1306 60.4781 67.8137C54.9219 66.1022 48.5617 55.6725 43.3021 52.2882C44.9079 50.7822 46.4443 49.2178 47.9813 47.6443Z" fill="#99B7C2"/>
<path d="M52.6887 42.9948C56.7709 48.3706 68.0724 56.1229 70 61.6492C68.7291 64.6866 67.2879 66.4555 64.1611 67.7309L63.899 67.8348C62.4171 65.5929 60.5096 63.5327 58.8046 61.4425C55.1181 56.9235 51.3306 52.4154 47.9808 47.6443C49.5401 46.089 51.0748 44.4944 52.6887 42.9948Z" fill="#94BCE8"/>
<path d="M40.348 42.3872C39.1035 43.2605 37.8573 44.1242 36.5176 44.8516C30.845 47.9316 23.5879 48.7431 17.3814 46.8834C16.9943 46.7664 16.6106 46.6398 16.2298 46.5035C15.849 46.3672 15.4722 46.2219 15.0988 46.068C14.7255 45.9141 14.3556 45.7505 13.9902 45.5785C13.6243 45.4064 13.2636 45.2253 12.9069 45.0356C12.5507 44.846 12.1992 44.6478 11.8522 44.4411C11.5052 44.2344 11.164 44.0197 10.8279 43.796C10.4918 43.5728 10.1615 43.3417 9.83689 43.1026C9.51229 42.8636 9.19399 42.6166 8.88143 42.3616C8.56887 42.1066 8.26319 41.8449 7.96382 41.5751C7.66445 41.3054 7.37196 41.0289 7.08635 40.7449C6.80074 40.461 6.52202 40.1708 6.25075 39.8733C5.97948 39.5763 5.71567 39.2725 5.45931 38.9625C5.20295 38.6524 4.95405 38.3361 4.71375 38.0141C4.47288 37.6922 4.24061 37.364 4.01579 37.0306C3.79098 36.6973 3.57477 36.3589 3.36716 36.0148C3.15955 35.6706 2.96054 35.322 2.77013 34.9688C2.58489 34.6213 2.40825 34.2686 2.24079 33.9126C2.07332 33.556 1.91446 33.1959 1.76478 32.832C1.61509 32.4674 1.47458 32.1 1.34382 31.7286C1.21306 31.3578 1.09148 30.9836 0.979072 30.606C0.866664 30.2289 0.764007 29.849 0.670525 29.4669C0.577617 29.0847 0.493885 28.7008 0.419902 28.3147C0.34592 27.928 0.281687 27.5402 0.227777 27.1506C0.173294 26.7611 0.128561 26.371 0.0935767 25.9791C0.0585927 25.5873 0.0339319 25.1949 0.0184472 24.802C0.00353606 24.409 -0.00219902 24.0161 0.00238904 23.6226C0.0069771 23.2296 0.0213148 22.8367 0.0454021 22.4443C0.0700629 22.0519 0.1039 21.6601 0.14806 21.2694C0.19222 20.8787 0.245556 20.4892 0.309215 20.1013C0.372301 19.7135 0.44571 19.3268 0.528869 18.9424C0.611454 18.5579 0.704362 18.1758 0.806446 17.7959C0.90853 17.4154 1.01979 17.0384 1.1408 16.6641C3.0913 10.5853 7.54974 5.63593 13.2647 2.72797C13.6197 2.54342 13.9788 2.36739 14.3418 2.20101C14.7054 2.03406 15.073 1.87676 15.4446 1.72799C15.8163 1.57978 16.1914 1.44066 16.5699 1.31062C16.9484 1.18058 17.3303 1.0602 17.7152 0.948898C18.0994 0.838167 18.4871 0.736522 18.8765 0.644531C19.2665 0.553107 19.6588 0.470769 20.0522 0.398084C20.4462 0.325967 20.8419 0.263504 21.2388 0.210694C21.6362 0.157884 22.0342 0.115295 22.434 0.0823595C22.8331 0.0494243 23.2329 0.0261424 23.6332 0.0130819C24.0341 2.13292e-05 24.4344 -0.00338577 24.8353 0.00342843C25.2361 0.0102426 25.6364 0.0272781 26.0362 0.0533992C26.4359 0.0800881 26.8351 0.116431 27.2331 0.162994C27.6311 0.209558 28.0274 0.265775 28.4225 0.331646C28.8177 0.398084 29.2111 0.473608 29.6022 0.559353C29.9939 0.645099 30.3828 0.740497 30.7688 0.844982C31.1553 0.950034 31.539 1.06417 31.9198 1.18796C38.0443 3.15045 43.3572 7.36446 46.2437 13.106C49.9486 20.4744 49.6348 29.5049 45.1041 36.398C44.4022 37.4662 42.3874 39.4457 42.1219 40.5456C42.1047 40.616 42.107 40.6893 42.0995 40.7614C41.5237 41.3117 40.9399 41.854 40.348 42.3872Z" fill="url(#paint0_linear_1_140)"/>
<path d="M22.2125 4.48258C26.9795 3.87895 32.0711 5.22305 35.9853 7.9476C36.252 8.13044 36.5141 8.31954 36.771 8.51488C37.0279 8.71022 37.2803 8.9118 37.5274 9.1202C37.7746 9.32804 38.0167 9.54212 38.2529 9.76187C38.4892 9.98163 38.7203 10.2071 38.9457 10.4376C39.1711 10.6687 39.3908 10.905 39.6041 11.1469C39.8175 11.3882 40.0251 11.6352 40.2264 11.8873C40.4277 12.1389 40.6227 12.3956 40.8114 12.6568C40.9995 12.918 41.1818 13.1832 41.3568 13.4535C41.5322 13.7238 41.7009 13.998 41.8626 14.2763C42.0243 14.5545 42.1786 14.8367 42.3266 15.1224C42.4745 15.4086 42.615 15.6982 42.7481 15.9906C42.8811 16.2831 43.0073 16.5789 43.1255 16.8776C43.2442 17.1763 43.3554 17.4778 43.4587 17.7822C43.5619 18.0866 43.6582 18.3932 43.746 18.7021C43.8343 19.011 43.9152 19.3216 43.988 19.6345C44.0608 19.9474 44.1256 20.2614 44.183 20.5777C45.0479 25.589 44.0729 31.0216 41.0115 35.1612C37.6588 39.6944 32.6377 42.4269 27.1005 43.3127C21.7193 43.7607 16.9873 42.7698 12.5547 39.5791C12.2994 39.3985 12.0488 39.2111 11.8028 39.0181C11.5573 38.8244 11.3164 38.6251 11.0813 38.4195C10.8456 38.214 10.6156 38.0027 10.3914 37.7858C10.1666 37.5689 9.94749 37.3463 9.73414 37.118C9.5208 36.8903 9.31319 36.6569 9.11246 36.4184C8.91116 36.1799 8.71617 35.9369 8.52748 35.6888C8.3388 35.44 8.15585 35.1873 7.98036 34.9301C7.80429 34.6729 7.63511 34.4111 7.4728 34.1453C7.3105 33.8796 7.15508 33.6099 7.00597 33.3362C6.85743 33.0625 6.71577 32.7853 6.581 32.5043C6.4468 32.2237 6.31948 31.9398 6.19962 31.6525C6.07975 31.3651 5.96735 31.075 5.86239 30.782C5.75744 30.489 5.65995 30.1942 5.56991 29.8961C5.47987 29.5986 5.39785 29.2987 5.3233 28.9966C5.24874 28.6951 5.18164 28.3913 5.12314 28.0858C5.06407 27.7809 5.01303 27.4742 4.96944 27.1665C4.20209 21.94 5.26824 16.6226 8.49422 12.3638C11.8779 7.89649 16.6908 5.29574 22.2131 4.48144L22.2125 4.48258Z" fill="white"/>
<path d="M22.2418 23.35C26.5912 21.0173 33.0587 15.625 37.3978 14.399C38.0453 14.2161 38.8207 14.1395 39.4217 14.5154C40.1627 14.9776 40.1512 15.4183 40.3164 16.1962C40.1621 19.4528 40.0853 22.7117 40.0847 25.9723C40.0767 27.6378 40.2711 29.5787 40.0302 31.213C39.9861 32.1823 40.0153 32.9041 39.4636 33.7201C37.3325 34.3595 12.3918 34.159 10.9918 33.4452C9.96469 31.4135 10.5256 18.1945 10.6059 15.2082C14.6204 17.4103 18.7675 20.3631 22.2412 23.35H22.2418Z" fill="#99B7C2"/>
<path d="M25.0095 27.6753C27.5949 26.4612 38.0207 19.8572 39.8238 18.1019C39.7572 17.5136 39.7406 17.031 39.8301 16.4444L40.317 16.1962C40.1627 19.4528 40.0859 22.7117 40.0853 25.9723C40.0773 27.6378 40.2717 29.5787 40.0308 31.213L39.8404 30.9609C37.5659 30.1937 16.1505 30.5651 11.6875 30.5509C11.6244 26.7111 11.6376 22.8713 11.7276 19.0321C16.166 21.9122 20.3566 25.12 25.0084 27.6759L25.0095 27.6753Z" fill="#99B7C2"/>
</g>
<defs>
<linearGradient id="paint0_linear_1_140" x1="0.000846863" y1="23.9361" x2="48.7863" y2="23.9361" gradientUnits="userSpaceOnUse">
<stop stop-color="#90B1EB"/>
<stop offset="1" stop-color="#7DBEBA"/>
</linearGradient>
<clipPath id="clip0_1_140">
<rect width="70" height="68" fill="white"/>
</clipPath>
</defs>
</svg>
